<?xml version="1.0" encoding="utf-8"?>
<!-- Generator: Adobe Illustrator 17.0.0, SVG Export Plug-In . SVG Version: 6.00 Build 0)  -->
<!DOCTYPE svg PUBLIC "-//W3C//DTD SVG 1.1//EN" "http://www.w3.org/Graphics/SVG/1.1/DTD/svg11.dtd">
<svg version="1.1" id="OBJECTS" xmlns="http://www.w3.org/2000/svg" xmlns:xlink="http://www.w3.org/1999/xlink" x="0px" y="0px"
	 width="500px" height="330.842px" viewBox="0 0 500 330.842" enable-background="new 0 0 500 330.842" xml:space="preserve">
<g>
	<g>
		<g>
			<defs>
				<path id="SVGID_1_" d="M480.789,330.842H7.41c-10.599,0-19.191-8.592-19.191-19.191V17.345c0-10.599,8.592-19.191,19.191-19.191
					h473.38c10.599,0,19.191,8.592,19.191,19.191V311.65C499.981,322.249,491.389,330.842,480.789,330.842z"/>
			</defs>
			<clipPath id="SVGID_2_">
				<use xlink:href="#SVGID_1_"  overflow="visible"/>
			</clipPath>
			<path clip-path="url(#SVGID_2_)" fill="#FF99FA" d="M251.581,185.25c-12.035-7.148-26.556-8.591-40.55-8.918
				c-13.994-0.327-28.228,0.267-41.736-3.404c-25.346-6.888-45.229-28.97-52.168-54.302c-6.94-25.331-1.754-53.154,11.355-75.914
				c13.109-22.759,33.632-40.684,56.601-53.422c21.006-11.65,44.763-19.303,68.762-18.304s48.178,11.424,62.709,30.551
				c14.531,19.127,17.692,47.221,4.903,67.553c-7.378,11.731-19.007,19.993-29.101,29.488
				c-10.095,9.495-19.285,21.681-19.157,35.539c0.136,14.709,10.635,27.25,13.932,41.586c1.591,6.914-0.101,40.008-12.034,39.859
				c-5.096-0.064-6.471-10.419-8.263-13.796C263.221,194.956,258.269,189.223,251.581,185.25z"/>
			<path clip-path="url(#SVGID_2_)" fill="#D256E8" d="M238.515,192.298c-15.142,2.285-28.241,11.352-41.103,19.663
				c-21.008,13.576-43.902,26.056-68.867,27.607c-24.965,1.55-52.341-10.688-61.242-34.064
				c-5.945-15.612-3.212-34.103-11.883-48.382c-6.678-10.997-19.046-17.379-31.513-20.56s-25.45-3.693-38.11-5.991
				c-26.618-4.832-52.136-18.138-69.083-39.225c-16.947-21.088-24.452-50.22-17.005-76.228c8.74-30.525,35.43-52.201,62.137-69.374
				c28.623-18.404,59.603-34.287,93.133-40.09c33.531-5.803,70.078-0.527,97.197,20.029c22.578,17.114,36.81,43.133,46.335,69.816
				c10.405,29.147,15.285,63.736-2.066,89.363c-7.08,10.457-17.271,18.428-24.977,28.433c-7.706,10.005-12.826,23.705-7.646,35.223
				c6.264,13.927,24.212,18.05,39.452,17.083c15.24-0.967,30.858-5.157,45.49-0.787c18.946,5.659,37.159,34.17,25.706,53.318
				c-2.17-5.198-1.481-11.708-5.097-16.561C262.996,193.009,248.301,190.821,238.515,192.298z"/>
			<path clip-path="url(#SVGID_2_)" fill="#EE7BFF" d="M222.781,201.391c-16.573,8.571-29.887,22.199-45.031,33.098
				c-32.762,23.579-74.758,33.948-114.73,28.328c-39.972-5.62-77.48-27.167-102.471-58.866
				c-12.306-15.61-21.833-34.271-22.506-54.137c-1.16-34.215,25.039-65.038,56.699-78.063c16.921-6.961,37.351-9.451,52.785,0.377
				c14.417,9.181,21.073,27.014,22.515,44.046c1.442,17.031-1.35,34.136-1.146,51.228c0.203,17.091,3.993,35.244,16.086,47.323
				c12.747,12.732,32.55,16.186,50.318,13.204c17.768-2.982,34.048-11.527,49.898-20.091c15.85-8.565,31.925-17.386,49.574-21.009
				c7.966-1.635,16.374-2.154,24.131,0.287c6.213,1.955,13.621,6.67,15.54,13.101C256.356,193.513,240.785,192.08,222.781,201.391z"
				/>
		</g>
	</g>
	<g>
		<g>
			<rect x="249.582" y="276.694" fill="#5C34EE" width="50.709" height="39.101"/>
			<rect x="258.746" y="257.144" fill="#4216AB" width="50.709" height="19.551"/>
			<rect x="249.582" y="239.29" fill="#9E47C6" width="50.709" height="17.854"/>
			<path fill="#5C34EE" d="M285.372,214.792v-1.925h-24.627v21.262c0,3.219,2.609,5.828,5.828,5.828h12.971
				c3.219,0,5.828-2.609,5.828-5.828v-6.118c3.399-0.285,6.079-3.138,6.079-6.609C291.451,217.93,288.771,215.078,285.372,214.792z
				 M285.372,225.401v-7.998c1.971,0.275,3.497,1.954,3.497,3.999C288.869,223.447,287.343,225.125,285.372,225.401z"/>
		</g>
		<g>
			<g>
				<g>
					<path fill="#00E9FF" d="M18.176,212.261c0.945-17.978,8.535-34.957,11.039-52.785c1.711-12.183,1.02-24.568,1.85-36.842
						c0.83-12.274,3.382-24.899,10.685-34.799c7.303-9.9,20.296-16.372,32.143-13.057c14.515,4.063,21.897,20.383,23.906,35.322
						c2.009,14.939,0.683,30.622,6.355,44.587c3.517,8.659,9.53,16.094,13.368,24.615c8.94,19.849,4.275,45.024-11.183,60.352
						c-16.441,16.302-37.79,15.575-59.178,14.624C26.485,253.359,17.191,230.998,18.176,212.261z"/>
					<path fill="#2737FF" d="M62.868,274.83c-0.012,0-0.025,0-0.037,0c-0.807-0.02-1.444-0.69-1.424-1.498l4.171-167.137
						c0.02-0.806,0.704-1.446,1.496-1.424c0.807,0.02,1.444,0.69,1.424,1.496l-4.171,167.139
						C64.308,274.2,63.658,274.83,62.868,274.83z"/>
				</g>
				<path fill="#2737FF" d="M69.527,262.897c2.524-9.959,8.224-19.087,16.064-25.726c6.245,8.761,8.233,20.417,5.247,30.753
					c-1.934,6.692-9.169,20.298-17.314,21.015C64.825,289.706,68.282,267.808,69.527,262.897z"/>
				<path fill="#2737FF" d="M39.364,258.134c-5.678-8.562-8.606-18.917-8.253-29.185c10.685,1.264,20.652,7.625,26.298,16.784
					c3.656,5.93,8.868,20.431,3.925,26.944C56.056,279.633,42.164,262.356,39.364,258.134z"/>
				<path fill="#2737FF" d="M65.637,155.578c-0.449,0-0.873-0.207-1.15-0.559l-24.332-31.042c-0.498-0.635-0.387-1.553,0.249-2.051
					c0.635-0.496,1.553-0.387,2.051,0.249l23.169,29.557l21.857-28.544c0.491-0.639,1.408-0.762,2.048-0.272
					c0.64,0.491,0.762,1.407,0.272,2.048l-23.003,30.042c-0.275,0.358-0.7,0.569-1.151,0.572
					C65.642,155.578,65.639,155.578,65.637,155.578z"/>
				<path fill="#2737FF" d="M64.643,220.407c-0.021,0-0.044,0-0.065-0.001c-0.489-0.021-0.933-0.287-1.185-0.705l-26.457-43.819
					c-0.417-0.69-0.196-1.588,0.495-2.006c0.69-0.419,1.588-0.195,2.006,0.496l25.324,41.942l27.078-36.959
					c0.476-0.65,1.391-0.793,2.041-0.315c0.651,0.476,0.792,1.391,0.315,2.041l-28.373,38.728
					C65.545,220.185,65.107,220.407,64.643,220.407z"/>
				<path fill="#5C34EE" d="M20.572,267.458c-0.258,1.872-0.402,3.781-0.402,5.724c0,22.973,18.624,41.597,41.597,41.597
					c22.973,0,41.597-18.624,41.597-41.597c0-1.943-0.144-3.852-0.402-5.724H20.572z"/>
			</g>
			<path fill="#5C34EE" d="M102.922,102.003c0,0-33.506,7.755-23.807,34.584C79.115,136.587,104.208,132.468,102.922,102.003z"/>
			<path fill="#5C34EE" d="M15.962,153.214c0,0,0.149,33.964,28.107,30.485C44.069,183.698,45.584,158.632,15.962,153.214z"/>
			<path fill="#2737FF" d="M35.716,117.415c0,0,0.09,20.583,17.033,18.474C52.749,135.889,53.668,120.698,35.716,117.415z"/>
			<path fill="#2737FF" d="M101.618,163.927c0,0-26.095,7.889-17.018,28.602C84.6,192.529,104.231,187.956,101.618,163.927z"/>
		</g>
		<g>
			<g>
				<g>
					<path fill="#3819CE" d="M97.135,270.295c-0.103,0-0.207-0.011-0.312-0.033c-0.801-0.171-1.311-0.959-1.14-1.76l8.657-40.482
						c0.171-0.801,0.96-1.31,1.76-1.14c0.801,0.171,1.311,0.959,1.14,1.76l-8.657,40.482
						C98.434,269.818,97.819,270.295,97.135,270.295z"/>
					<path fill="#3819CE" d="M146.378,270.116c-0.685,0-1.3-0.477-1.449-1.174l-8.618-40.303c-0.171-0.801,0.339-1.589,1.14-1.76
						c0.799-0.169,1.589,0.339,1.76,1.14l8.618,40.303c0.171,0.801-0.339,1.589-1.14,1.76
						C146.585,270.105,146.481,270.116,146.378,270.116z"/>
					<path fill="#2D2183" d="M88.285,315.158c-0.343,0-0.69-0.036-1.039-0.11c-2.67-0.571-4.371-3.198-3.8-5.868l8.853-41.402
						c0.571-2.67,3.198-4.369,5.868-3.801c2.67,0.571,4.371,3.198,3.8,5.868l-8.853,41.402
						C92.618,313.569,90.566,315.158,88.285,315.158z"/>
					<path fill="#2D2183" d="M155.266,315.158c-2.282,0-4.333-1.589-4.829-3.911l-8.892-41.581c-0.571-2.67,1.131-5.297,3.8-5.868
						c2.671-0.569,5.297,1.131,5.868,3.801l8.892,41.581c0.571,2.67-1.131,5.297-3.8,5.868
						C155.957,315.123,155.609,315.158,155.266,315.158z"/>
				</g>
				<rect x="87.605" y="223.952" fill="#2D2183" width="69.01" height="7.725"/>
				<path fill="#3A21CC" d="M209.583,296.779c0,0,5.842,7.861,9.683,8.538c0,0,10.032,0.382,11.321,4.866
					c0,0-13.792,5.787-42.838-2.995c0,0-2.047-7.489,1.037-9.817C188.786,297.372,199.327,303.289,209.583,296.779z"/>
				<polygon fill="#CED1EF" points="191.283,290.139 186.452,306.827 196.553,309.462 198.748,286.626 				"/>
				<path fill="#3819CE" d="M185.144,261.851c-0.409,3.795-0.945,7.621-0.523,11.415c0.422,3.794,1.931,7.635,4.916,10.016
					c2.984,2.381,7.619,2.879,10.583,0.473c4.129-15.146,8.259-30.292,12.388-45.438c1.009-3.7,1.988-7.788,0.319-11.241
					c-2.23-4.61-8.142-6-13.263-5.936c-5.018,0.062-9.636,0.308-14.579-0.626c-0.914,6.221,1.053,13.883,1.141,20.341
					C186.223,247.865,185.896,254.88,185.144,261.851z"/>
				<path fill="#CED1EF" d="M228.829,227.21c-0.424,1.798-1.055,3.783-0.164,5.402c1.032,1.875,3.783,2.227,5.649,1.18
					c1.866-1.047,2.964-3.08,3.621-5.117c1.692-5.247,0.999-11.214-1.851-15.933c-2.658-4.401-7.901-8.599-13.187-8.99
					c-0.529,3.847,3.54,6.86,4.909,10.334C229.438,218.227,229.853,222.866,228.829,227.21z"/>
				<path fill="#5C34EE" d="M113.966,219.016c7.053,5.345,16.325,6.496,25.121,7.465c21.926,2.415,43.851,4.829,65.777,7.244
					c-8.998,20.064-15.708,41.154-19.957,62.728c5.579,0.186,11.158,0.372,16.736,0.558c8.804-21.64,17.608-43.281,26.412-64.921
					c1.659-4.078,3.35-8.362,2.908-12.743c-0.568-5.619-4.649-10.398-9.514-13.267c-4.865-2.869-10.478-4.145-15.989-5.38
					c-15.115-3.388-30.229-6.777-45.344-10.165c-4.383-0.983-9.374-2.445-11.168-6.562c-1.231-2.825-0.765-6.585-3.183-8.495
					c-1.644-1.298-3.968-1.146-6.047-0.895c-11.639,1.407-24.49,3.344-35.4,7.827c-7.247,2.978-1.956,18.05,0.257,23.644
					C106.565,211.091,109.614,215.718,113.966,219.016z"/>
				<path fill="#6F25E5" d="M153.714,110.132c-14.646,8.993-26.418,21.951-37.129,35.392c-9.571,12.01-18.731,25.162-21.182,40.322
					c20.079-2.91,40.533-3.219,60.69-0.916c2.811,0.321,5.823,0.658,8.327-0.659c1.7-0.894,2.942-2.446,4.116-3.968
					c11.386-14.756,21.191-30.731,29.194-47.564c2.566-5.397,4.928-10.972,6.21-16.83c0.758-3.466,2.808-13.179-0.721-15.592
					c-1.236-0.845-4.744-0.69-6.18-0.865c-2.791-0.339-5.604-0.464-8.415-0.379c-5.757,0.173-11.473,1.21-16.974,2.897
					C165.354,103.901,159.324,106.687,153.714,110.132z"/>
				<polygon fill="#CED1EF" points="203.219,100.317 223.484,96.751 228.236,113.385 208.17,115.762 				"/>
				<path fill="#6F25E5" d="M258.699,90.45c0,0,8.032,0,9.036-10.642c0,0-15.662-30.319-35.942-13.252
					c0,0-12.047-6.626-19.075,23.492c0,0,0.201,3.815,7.63,5.823"/>
				<path fill="#E8E9FF" d="M258.699,90.45c0,0-12.65,45.579-34.737,27.508c-0.803-1.004-10.642-12.047-3.615-22.087
					c-0.179,0.256-2.058-2.635-2.191-2.865c-0.961-1.664-1.721-3.579-1.185-5.507c0.493-1.773,1.842-3.185,3.389-4.115
					c1.451-0.871,4.088-0.376,4.287,1.598c0.05,0.495-0.057,0.99-0.163,1.476c-0.437,2.001-0.882,4-1.326,5.999
					c0,0,2.609,2.007,2.61,2.008c-0.574-0.441,1.904-6.118,2.136-6.655c1.69-3.91,4.206-7.854,8.06-9.919
					c3.303-1.77,7.761-2.334,10.743,0.238C250.992,81.823,254.76,86.388,258.699,90.45z"/>
				<path fill="#764AFF" d="M207.616,105.258c2.954,4.744,3.333,10.716,2.369,16.221c-0.963,5.505-3.151,10.706-5.05,15.962
					c-3.894,10.778-6.643,22.3-5.113,33.658c0.926,6.866,3.606,13.605,7.975,19.013c2.163,2.678,4.774,5.084,7.752,6.831
					c5.582,3.275,11.608,4.432,14.802,10.698c0.379,0.744,0.706,1.549,0.683,2.384c-0.161,5.764-8.97-1.01-10.84-1.636
					c-2.75-0.921-5.495-1.86-8.244-2.785c-6.827-2.297-13.657-4.585-20.48-6.891c-3.745-1.266-7.669-2.647-10.287-5.609
					c-3.028-3.427-3.711-8.268-4.263-12.808c-1.424-11.713-2.847-23.425-4.271-35.138c-1.237-10.175-2.397-20.926,1.719-30.314
					C179.491,103.162,198.211,90.155,207.616,105.258z"/>
				<path fill="#5A35E5" d="M205.219,302.479c0,0,5.428,10.132,9.77,11.58c0,0,11.58,2.171,12.303,7.599
					c0,0-17.007,4.342-49.213-10.856c0,0-1.086-9.047,2.895-11.218C180.974,299.584,192.192,308.269,205.219,302.479z"/>
				<path fill="#3819CE" d="M143.74,259.94H99.45c-0.819,0-1.483-0.664-1.483-1.483c0-0.819,0.664-1.483,1.483-1.483h44.29
					c0.819,0,1.483,0.664,1.483,1.483C145.223,259.276,144.559,259.94,143.74,259.94z"/>
			</g>
		</g>
	</g>
</g>
</svg>
